{"title":"Miss.Nobody.2010.480p.BRRip.XviD-DiN","uid":8312089,"size":1463039183,"categoryP":"video","categoryS":"movies","magnet":"?xt=urn:btih:5098a2c92435edc6db87912a216a62bbdd60d126&amp;dn=Miss.Nobody.2010.480p.BRRip.XviD-DiN&amp;tr=udp%3A%2F%2Ftracker.openbittorrent.com%3A80&amp;tr=udp%3A%2F%2Fopen.demonii.com%3A1337&amp;tr=udp%3A%2F%2Ftracker.coppersurfer.tk%3A6969&amp;tr=udp%3A%2F%2Fexodus.desync.com%3A6969","seeders":0,"leechers":1,"uploader":"sceneline","files":5,"time":1364500639,"description":"-\n &lt;a href=&quot;\nhttp://www.Speed.&quot; rel=&quot;nofollow&quot; target=&quot;_NEW&quot;&gt;\nhttp://www.Speed.&lt;/a&gt; Cd       the fast  and The Hottest Private Tracker on the net &lt;a href=&quot;\nhttp://www.Speed.&quot; rel=&quot;nofollow&quot; target=&quot;_NEW&quot;&gt;\nhttp://www.Speed.&lt;/a&gt; Cd\n\nPlease Seed back to make the speed Faster!!\n ............ NFO .............\n-\n &lt;a href=&quot;\nhttp://www.Speed.&quot; rel=&quot;nofollow&quot; target=&quot;_NEW&quot;&gt;\nhttp://www.Speed.&lt;/a&gt; Cdhttp://www.imdb.com/title/tt1129427/\n\nGeneral\n\nComplete name                            : Miss.Nobody.2010.480p.BRRip.XviD-DiN\n\nFormat                                   : AVI\n\nFormat/Info                              : Audio Video Interleave\n\nFile size                                : 1.36 GiB\n\nDuration                                 : 1h 31mn\n\nOverall bit rate                         : 2 125 Kbps\n\n\n\nVideo\n\nID                                       : 0\n\nFormat                                   : MPEG-4 Visual\n\nFormat profile                           : Advanced Simple@L5\n\nFormat settings, BVOP                    : 1\n\nFormat settings, QPel                    : No\n\nFormat settings, GMC                     : No warppoints\n\nFormat settings, Matrix                  : Default (H.263)\n\nMuxing mode                              : Packed bitstream\n\nCodec ID                                 : XVID\n\nCodec ID/Hint                            : XviD\n\nDuration                                 : 1h 31mn\n\nBit rate                                 : 1 669 Kbps\n\nWidth                                    : 720 pixels\n\nHeight                                   : 304 pixels\n\nDisplay aspect ratio                     : 2.35:1\n\nFrame rate                               : 25.000 fps\n\nColor space                              : YUV\n\nChroma subsampling                       : 4:2:0\n\nBit depth                                : 8 bits\n\nScan type                                : Progressive\n\nCompression mode                         : Lossy\n\nBits/(Pixel*Frame)                       : 0.305\n\nStream size                              : 1.07 GiB (79%)\n\nWriting library                          : XviD 1.2.1 (UTC 2008-12-04)\n\n\n\nAudio\n\nID                                       : 1\n\nFormat                                   : AC-3\n\nFormat/Info                              : Audio Coding 3\n\nMode extension                           : CM (complete main)\n\nFormat settings, Endianness              : Big\n\nCodec ID                                 : 2000\n\nDuration                                 : 1h 31mn\n\nBit rate mode                            : Constant\n\nBit rate                                 : 448 Kbps\n\nChannel(s)                               : 2 channels\n\nChannel positions                        : Front: L R\n\nSampling rate                            : 48.0 KHz\n\nBit depth                                : 16 bits\n\nCompression mode                         : Lossy\n\nStream size                              : 294 MiB (21%)\n\nAlignment                                : Aligned on interleaves\n\nInterleave, duration                     : 64 ms (1.60 video frames)\n\nInterleave, preload duration             : 192 ms","torrent":{"xt":"urn:btih:5098a2c92435edc6db87912a216a62bbdd60d126","amp;dn":"Miss.Nobody.2010.480p.BRRip.XviD-DiN","amp;tr":["udp%3A%2F%2Ftracker.openbittorrent.com%3A80","udp%3A%2F%2Fopen.demonii.com%3A1337","udp%3A%2F%2Ftracker.coppersurfer.tk%3A6969","udp%3A%2F%2Fexodus.desync.com%3A6969"],"infoHash":"5098a2c92435edc6db87912a216a62bbdd60d126","infoHashBuffer":{"type":"Buffer","data":[80,152,162,201,36,53,237,198,219,135,145,42,33,106,98,187,221,96,209,38]},"announce":[],"urlList":[]}}